Coordinates
nRows=6
nColumns=38

# SIMM Motion File Header:
name Coordinates
datacolumns 38
datarows 6
otherdata 1
range 2.36560000000000010000 2.37060000000000000000

Units are S.I. units (second, meters, Newtons, ...)
Angles are in degrees.

endheader
time	pelvis_tilt	pelvis_list	pelvis_rotation	pelvis_tx	pelvis_ty	pelvis_tz	hip_flexion_r	hip_adduction_r	hip_rotation_r	knee_angle_r	ankle_angle_r	subtalar_angle_r	mtp_angle_r	hip_flexion_l	hip_adduction_l	hip_rotation_l	knee_angle_l	ankle_angle_l	subtalar_angle_l	mtp_angle_l	lumbar_extension	lumbar_bending	lumbar_rotation	arm_flex_r	arm_add_r	arm_rot_r	elbow_flex_r	pro_sup_r	wrist_flex_r	wrist_dev_r	arm_flex_l	arm_add_l	arm_rot_l	elbow_flex_l	pro_sup_l	wrist_flex_l	wrist_dev_l
      2.36560000000000010000	     -1.16159289425081760000	      7.01536027885924350000	      0.14517254921293862000	      0.86293705915168983000	      1.03854718876384530000	     -0.32263781738300629000	     29.73181549312017000000	     -1.93013099588889010000	      5.71110570427976680000	    -85.65077388573733700000	     11.40135447187054600000	     -0.00000000000005259866	      0.00000000000005190073	     11.76588391980906100000	     10.02589710005119100000	     -0.38997003215808934000	    -42.36955667455977400000	     28.09514902293130900000	      0.00000000000000770795	      0.00000000000003010153	    -17.36999651157811200000	     -9.39395635958755730000	    -14.11784477154978700000	    -23.88107986639357300000	    -21.77185953758066000000	      8.83936998996519920000	     89.90345005640945400000	    101.97129879942855000000	     -0.00000000000003634699	     -0.00000000000006346719	    -10.74473440940216700000	    -23.88150754044312800000	      3.09358607057969830000	    108.93889056229769000000	     94.86793079722072300000	     -0.00000000000001636636	     -0.00000000000002890831
      2.36660000000000000000	     -1.19069974568963490000	      6.94511299428158060000	      0.17177867925543547000	      0.86292880363811153000	      1.03881764795607220000	     -0.32265446254128272000	     29.85750468468177800000	     -1.86084450516621880000	      5.68221196940674830000	    -85.45903956870236600000	     11.45054169160655500000	     -0.00000000000005256460	      0.00000000000005204091	     11.59061251856232700000	      9.97772343259229190000	     -0.28742910628469115000	    -42.22923621333180200000	     28.07816854726626900000	      0.00000000000000770790	      0.00000000000003066732	    -17.33226773781731100000	     -9.28875332766677180000	    -14.20269310169291700000	    -24.05383151171892200000	    -21.83082651987182000000	      8.81811213546897040000	     89.97847787639763300000	    101.93936444928140000000	     -0.00000000000003643555	     -0.00000000000006354527	    -10.74449971411083400000	    -23.84263607773792200000	      2.99197859544320940000	    109.13102455443835000000	     94.90995724499509800000	     -0.00000000000001640083	     -0.00000000000002904920
      2.36759999999999990000	     -1.22088529187129910000	      6.87395285645899270000	      0.19768996985880274000	      0.86292427040973407000	      1.03909241193708120000	     -0.32266952594920945000	     29.98252241560674100000	     -1.79065613569840850000	      5.65304552232049140000	    -85.26307060579011900000	     11.49912082802001300000	     -0.00000000000005252703	      0.00000000000005218175	     11.41533194325967500000	      9.92826155099286640000	     -0.18503751960097561000	    -42.08640488426835400000	     28.05890052930369900000	      0.00000000000000766743	      0.00000000000003128548	    -17.29253833390022200000	     -9.18247756663996030000	    -14.28506912294010400000	    -24.22923768856752200000	    -21.88942615793508800000	      8.79334414241637500000	     90.05859906291233600000	    101.91137752460654000000	     -0.00000000000003652376	     -0.00000000000006362589	    -10.74498584986743800000	    -23.80294987937481100000	      2.89048559328367460000	    109.32493907843345000000	     94.95514231353274700000	     -0.00000000000001643563	     -0.00000000000002919194
      2.36860000000000030000	     -1.25216089935286970000	      6.80189087487598520000	      0.22284903806709891000	      0.86292338875682406000	      1.03937140357168700000	     -0.32268282040882246000	     30.10688972326740800000	     -1.71952633378457250000	      5.62366904743070870000	    -85.06287884473376000000	     11.54705624767755600000	     -0.00000000000005248821	      0.00000000000005232390	     11.24009492033102800000	      9.87749158509620000000	     -0.08289773232293849700	    -41.94110830932360300000	     28.03731457764821000000	      0.00000000000000759910	      0.00000000000003190627	    -17.25080822053606500000	     -9.07518519342580810000	    -14.36493200279418200000	    -24.40718941696879800000	    -21.94761663201552400000	      8.76512135559052830000	     90.14352237035606700000	    101.88726634483449000000	     -0.00000000000003661194	     -0.00000000000006370863	    -10.74613111144964600000	    -23.76247605683972000000	      2.78921011468505280000	    109.52051185462899000000	     95.00334998561807300000	     -0.00000000000001647021	     -0.00000000000002934168
      2.36960000000000020000	     -1.28453522929571480000	      6.72893754999863610000	      0.24719836827423114000	      0.86292608796987536000	      1.03965454905989920000	     -0.32269415838499999000	     30.23062444204521900000	     -1.64741497268514550000	      5.59414453824742800000	    -84.85847517015807300000	     11.59431100436161100000	     -0.00000000000005245104	      0.00000000000005246713	     11.06495209540683300000	      9.82539393670026230000	      0.01888794414635157700	    -41.79339495225303100000	     28.01337985632460100000	      0.00000000000000753953	      0.00000000000003250887	    -17.20708140841616900000	     -8.96693138629822250000	    -14.44224484736169400000	    -24.58757636456784100000	    -22.00535935563862500000	      8.73350657827288400000	     90.23296035106299900000	    101.86694601872962000000	     -0.00000000000003670019	     -0.00000000000006379205	    -10.74788026559890300000	    -23.72124383777228100000	      2.68825407434616850000	    109.71762748840780000000	     95.05443628959717700000	     -0.00000000000001650430	     -0.00000000000002949244
      2.37060000000000000000	     -1.31801423715084590000	      6.65510299348788250000	      0.27068066423352949000	      0.86293229761669277000	      1.03994177784081440000	     -0.32270335306443182000	     30.35374110857872400000	     -1.57428180628400690000	      5.56453292728980030000	    -84.64986948102914300000	     11.64084681913865700000	     -0.00000000000005242029	      0.00000000000005261008	     10.88995194645470100000	      9.77194947565943120000	      0.12021764339535790000	    -41.64331603794039400000	     27.98706510463168600000	      0.00000000000000747289	      0.00000000000003313036	    -17.16136594351644000000	     -8.85777027295345580000	    -14.51697482310847300000	    -24.77028720597950000000	    -22.06261891147647300000	      8.69856952561813480000	     90.32663001248813800000	    101.85031918114875000000	     -0.00000000000003678788	     -0.00000000000006387334	    -10.75018436229150400000	    -23.67928436655428800000	      2.58771804620764900000	    109.91617734144062000000	     95.10825004845378300000	     -0.00000000000001653806	     -0.00000000000002963757
